<svg width="100" height="100" viewBox="0 0 100 100" fill="none" xmlns="http://www.w3.org/2000/svg">
<g clip-path="url(#clip0_1717_78)">
<path d="M91.7072 14.1736C86.355 8.8214 79.2257 5.85969 71.6522 5.85969C64.0787 5.85969 56.9283 8.8214 51.576 14.1948L50.0317 15.7391L48.4451 14.1525C43.0717 8.77909 35.9425 5.81738 28.3478 5.81738C20.7743 5.81738 13.6662 8.75794 8.31394 14.1313C2.94055 19.5047 0 26.634 0 34.2075C0 41.781 2.96171 48.9103 8.3351 54.2625L46.9854 92.9128C47.7893 93.7167 48.8894 94.1821 50.0529 94.1821C51.1953 94.1821 52.2953 93.7167 53.1204 92.9128L91.6649 54.3259C97.0383 48.9526 99.9788 41.8233 100 34.2498C100.021 26.6763 97.0594 19.547 91.7072 14.1736ZM28.0305 24.7935C22.9744 24.7935 18.8492 28.9187 18.8492 33.9748C18.8492 36.3018 16.9664 38.1846 14.6393 38.1846C12.3122 38.1846 10.4294 36.3018 10.4294 33.9748C10.4294 24.2858 18.3203 16.3949 28.0093 16.3949C30.3364 16.3949 32.2192 18.2777 32.2192 20.6048C32.2403 22.9318 30.3575 24.7935 28.0305 24.7935Z" fill="white"/>
</g>
<defs>
<clipPath id="clip0_1717_78">
<rect width="100" height="100" fill="white"/>
</clipPath>
</defs>
</svg>
