<svg width="24" height="24" viewBox="0 0 24 24" fill="none" xmlns="http://www.w3.org/2000/svg">
<g clip-path="url(#clip0)">
<path d="M19.0325 17.405H19.4464C21.1818 17.4052 22.7664 16.4189 23.5324 14.8616C24.2984 13.3045 24.1127 11.4472 23.0536 10.0726C21.9943 8.69785 20.2458 8.04482 18.5448 8.38862C18.3211 7.27193 17.5977 6.31936 16.5821 5.80376C15.5666 5.28816 14.3707 5.26654 13.3371 5.74494C12.4017 3.16837 9.55469 1.83805 6.97812 2.77344C4.40154 3.70903 3.07122 6.55603 4.00661 9.13261C1.74958 9.20375 -0.0332819 11.0719 0.000471443 13.3297C0.0344269 15.5878 1.87267 17.4014 4.13091 17.405" fill="#D0DAD9"/>
<path d="M17.3759 19.0607C17.3759 19.9751 16.6346 20.7165 15.7202 20.7165C14.8056 20.7165 14.0645 19.9751 14.0645 19.0607C14.0645 17.8189 15.7202 14.9214 15.7202 14.9214C15.7202 14.9214 17.3759 17.8189 17.3759 19.0607Z" fill="#60A2D7"/>
<path d="M13.2372 14.9214C13.2372 15.8357 12.4959 16.5771 11.5815 16.5771C10.6669 16.5771 9.92578 15.8357 9.92578 14.9214C9.92578 13.6796 11.5815 10.782 11.5815 10.782C11.5815 10.782 13.2372 13.6796 13.2372 14.9214Z" fill="#60A2D7"/>
<path d="M9.0976 19.8886C9.0976 20.8029 8.35624 21.5443 7.44186 21.5443C6.52729 21.5443 5.78613 20.8029 5.78613 19.8886C5.78613 18.6468 7.44186 15.7492 7.44186 15.7492C7.44186 15.7492 9.0976 18.6468 9.0976 19.8886Z" fill="#60A2D7"/>
</g>
<defs>
<clipPath id="clip0">
<rect width="24" height="24" fill="white"/>
</clipPath>
</defs>
</svg>
