<svg width="24" height="24" viewBox="0 0 24 24" fill="none" xmlns="http://www.w3.org/2000/svg">
<path d="M18.809 5.20159C18.261 5.2 17.7171 5.29361 17.2012 5.47759C17.2051 5.38558 17.2092 5.29361 17.2092 5.20159C17.2092 2.55099 15.0601 0.402008 12.4096 0.402008C9.75904 0.402008 7.60992 2.55099 7.60992 5.20159C7.60912 5.41037 7.62234 5.61878 7.6499 5.82554C7.25395 5.67517 6.83357 5.59956 6.41001 5.60158C4.69814 5.60158 3.2227 6.80748 2.88229 8.48533C1.16165 8.8877 0.0925274 10.6088 0.494902 12.3294C0.833293 13.7769 2.12395 14.8008 3.61026 14.8008H18.809C18.945 14.8008 19.077 14.7968 19.209 14.7848C21.8508 14.5684 23.8174 12.2518 23.601 9.60963C23.397 7.11583 21.3112 5.19719 18.809 5.20159Z" fill="#A3D4F7"/>
<path d="M13.3952 16.8006C13.2848 16.6094 13.04 16.5438 12.8488 16.6542L12.4088 16.9078V16.4006C12.4088 16.1798 12.2296 16.0006 12.0089 16.0006C11.7881 16.0006 11.6089 16.1798 11.6089 16.4006V16.9078L11.1689 16.6542C10.9769 16.545 10.7325 16.6122 10.6233 16.8042C10.5153 16.9946 10.5801 17.2362 10.7689 17.347L11.2097 17.6006L10.7697 17.8542C10.5777 17.9633 10.5105 18.2073 10.6197 18.3997C10.7289 18.5917 10.9729 18.6589 11.1653 18.5497C11.1669 18.5489 11.1685 18.5481 11.1701 18.5469L11.61 18.2933V18.8004C11.61 19.0212 11.7892 19.2004 12.01 19.2004C12.2308 19.2004 12.41 19.0212 12.41 18.8004V18.2933L12.85 18.5469C13.0404 18.6585 13.2855 18.5949 13.3972 18.4041C13.5088 18.2137 13.4452 17.9685 13.2544 17.8569C13.2528 17.8561 13.2512 17.8549 13.2496 17.8541L12.8096 17.6005L13.2496 17.3469C13.4404 17.2362 13.5056 16.9918 13.3952 16.8006Z" fill="#006DF0"/>
<path d="M19.649 17.8541L19.209 17.6005L19.649 17.3469C19.8394 17.2353 19.9033 16.9902 19.7917 16.7998C19.6809 16.611 19.4394 16.5462 19.249 16.6542L18.809 16.9078V16.4006C18.809 16.1798 18.6298 16.0006 18.409 16.0006C18.1882 16.0006 18.009 16.1798 18.009 16.4006V16.9078L17.5691 16.6542C17.3771 16.545 17.1327 16.6122 17.0235 16.8042C16.9155 16.9946 16.9803 17.2362 17.1691 17.347L17.6091 17.6006L17.1691 17.8542C16.9771 17.9633 16.91 18.2073 17.0191 18.3997C17.1283 18.5917 17.3723 18.6589 17.5647 18.5497C17.5663 18.5489 17.5678 18.5481 17.5694 18.5469L18.0094 18.2933V18.8004C18.0094 19.0212 18.1886 19.2004 18.4094 19.2004C18.6302 19.2004 18.8094 19.0212 18.8094 18.8004V18.2933L19.2493 18.5469C19.4413 18.6561 19.6857 18.5889 19.7949 18.3969C19.9021 18.2065 19.8373 17.9649 19.649 17.8541Z" fill="#006DF0"/>
<path d="M10.196 21.6002C10.0856 21.409 9.84079 21.3434 9.64959 21.4538L9.20962 21.7074V21.2002C9.20962 20.9795 9.03042 20.8003 8.80964 20.8003C8.58885 20.8003 8.40965 20.9795 8.40965 21.2002V21.7074L7.96968 21.4538C7.77768 21.3446 7.53332 21.4118 7.42411 21.6038C7.31611 21.7942 7.38089 22.0357 7.5697 22.1466L8.01046 22.4002L7.5705 22.6537C7.3785 22.7629 7.31132 23.0069 7.4205 23.1993C7.52967 23.3913 7.77365 23.4584 7.96603 23.3493C7.96762 23.3485 7.96921 23.3477 7.97081 23.3465L8.41078 23.0929V23.6C8.41078 23.8208 8.58998 24 8.81076 24C9.03154 24 9.21074 23.8208 9.21074 23.6V23.0929L9.65071 23.3465C9.84112 23.4581 10.0863 23.3945 10.1979 23.2037C10.3095 23.0129 10.2459 22.7681 10.0551 22.6565C10.0535 22.6557 10.0519 22.6545 10.0503 22.6537L9.61035 22.4001L10.0503 22.1465C10.2411 22.0357 10.3064 21.7914 10.196 21.6002Z" fill="#006DF0"/>
<path d="M6.99572 16.8006C6.88533 16.6094 6.64055 16.5438 6.44935 16.6542L6.00938 16.9078V16.4006C6.00938 16.1798 5.83018 16.0006 5.60939 16.0006C5.38861 16.0006 5.20941 16.1798 5.20941 16.4006V16.9078L4.76944 16.6542C4.57744 16.545 4.33308 16.6122 4.22391 16.8042C4.11591 16.9946 4.18069 17.2362 4.3695 17.347L4.81027 17.6006L4.3703 17.8542C4.1783 17.9633 4.11113 18.2073 4.2203 18.3997C4.32947 18.5917 4.57346 18.6589 4.76588 18.5497C4.76747 18.5489 4.76907 18.5481 4.77066 18.5469L5.21063 18.2933V18.8004C5.21063 19.0212 5.38983 19.2004 5.61061 19.2004C5.83139 19.2004 6.0106 19.0212 6.0106 18.8004V18.2933L6.45057 18.5469C6.64097 18.6585 6.88613 18.5949 6.99774 18.4041C7.10935 18.2133 7.04574 17.9685 6.85496 17.8569C6.85336 17.8561 6.85177 17.8549 6.85018 17.8541L6.41021 17.6005L6.85018 17.3469C7.04091 17.2362 7.10611 16.9918 6.99572 16.8006Z" fill="#006DF0"/>
<path d="M16.5943 21.6002C16.484 21.409 16.2392 21.3434 16.048 21.4538L15.608 21.7074V21.2002C15.608 20.9795 15.4288 20.8003 15.208 20.8003C14.9872 20.8003 14.808 20.9795 14.808 21.2002V21.7074L14.3681 21.4538C14.1761 21.3446 13.9317 21.4118 13.8225 21.6038C13.7145 21.7942 13.7793 22.0357 13.9681 22.1466L14.4089 22.4002L13.9689 22.6537C13.7769 22.7629 13.7098 23.0069 13.8189 23.1993C13.9281 23.3913 14.1721 23.4584 14.3645 23.3493C14.3661 23.3485 14.3676 23.3477 14.3692 23.3465L14.8092 23.0929V23.6C14.8092 23.8208 14.9884 24 15.2092 24C15.43 24 15.6092 23.8208 15.6092 23.6V23.0929L16.0491 23.3465C16.2395 23.4581 16.4847 23.3945 16.5963 23.2037C16.7079 23.0133 16.6443 22.7681 16.4535 22.6565C16.4519 22.6557 16.4503 22.6545 16.4487 22.6537L16.0088 22.4001L16.4487 22.1465C16.6395 22.0357 16.7047 21.7914 16.5943 21.6002Z" fill="#006DF0"/>
</svg>
