<svg width="24" height="24" viewBox="0 0 24 24" fill="none" xmlns="http://www.w3.org/2000/svg">
<path d="M18.8002 12C18.8002 15.7555 15.7557 18.8 12.0002 18.8C8.24473 18.8 5.2002 15.7555 5.2002 12C5.2002 8.24454 8.24473 5.20001 12.0002 5.20001C15.7557 5.20001 18.8002 8.24454 18.8002 12Z" fill="#FDD020"/>
<path d="M11.9996 24C11.7787 24 11.5996 23.8209 11.5996 23.6V20.4C11.5996 20.1791 11.7787 20 11.9996 20C12.2205 20 12.3996 20.1791 12.3996 20.4V23.6C12.3996 23.8209 12.2205 24 11.9996 24Z" fill="#FDD020"/>
<path d="M11.9996 4C11.7787 4 11.5996 3.8209 11.5996 3.6V0.4C11.5996 0.179102 11.7787 0 11.9996 0C12.2205 0 12.3996 0.179102 12.3996 0.4V3.6C12.3996 3.8209 12.2205 4 11.9996 4Z" fill="#FDD020"/>
<path d="M5.99961 6.00001L3.59961 3.60001L5.99961 6.00001Z" fill="#FDD020"/>
<path d="M6.00016 6.40001C5.89411 6.40001 5.79235 6.35782 5.71735 6.28282L3.31735 3.88282C3.16579 3.72579 3.16794 3.47638 3.32223 3.32208C3.47653 3.16778 3.72594 3.16563 3.88297 3.3172L6.28298 5.7172C6.39723 5.83165 6.43161 6.00372 6.36969 6.15314C6.30778 6.30255 6.16188 6.40001 6.00016 6.40001Z" fill="#FDD020"/>
<path d="M20.4 20.4L18 18L20.4 20.4Z" fill="#FDD020"/>
<path d="M20.3996 20.8C20.2935 20.8 20.1918 20.7578 20.1168 20.6828L17.7168 18.2828C17.5652 18.1258 17.5673 17.8764 17.7216 17.7221C17.8759 17.5678 18.1254 17.5656 18.2824 17.7172L20.6824 20.1172C20.7966 20.2316 20.831 20.4037 20.7691 20.5531C20.7072 20.7025 20.5613 20.8 20.3996 20.8Z" fill="#FDD020"/>
<path d="M18 6.00001L20.4 3.60001L18 6.00001Z" fill="#FDD020"/>
<path d="M17.9996 6.40001C17.8378 6.40001 17.692 6.30255 17.63 6.15314C17.5681 6.00372 17.6025 5.83165 17.7168 5.7172L20.1168 3.3172C20.2738 3.16563 20.5232 3.16778 20.6775 3.32208C20.8318 3.47638 20.8339 3.72579 20.6824 3.88282L18.2824 6.28282C18.2074 6.35782 18.1056 6.40001 17.9996 6.40001Z" fill="#FDD020"/>
<path d="M23.6 12.4H20.4C20.1791 12.4 20 12.2209 20 12C20 11.7791 20.1791 11.6 20.4 11.6H23.6C23.8209 11.6 24 11.7791 24 12C24 12.2209 23.8209 12.4 23.6 12.4Z" fill="#FDD020"/>
<path d="M3.6 12.4H0.4C0.179102 12.4 0 12.2209 0 12C0 11.7791 0.179102 11.6 0.4 11.6H3.6C3.8209 11.6 4 11.7791 4 12C4 12.2209 3.8209 12.4 3.6 12.4Z" fill="#FDD020"/>
<path d="M3.59961 20.4L5.99961 18L3.59961 20.4Z" fill="#FDD020"/>
<path d="M3.60015 20.8C3.43843 20.8 3.29254 20.7025 3.23062 20.5531C3.16871 20.4037 3.20308 20.2316 3.31734 20.1172L5.71734 17.7172C5.87437 17.5656 6.12379 17.5678 6.27808 17.7221C6.43238 17.8764 6.43453 18.1258 6.28296 18.2828L3.88297 20.6828C3.80797 20.7578 3.70621 20.8 3.60015 20.8Z" fill="#FDD020"/>
</svg>
