<svg width="24" height="24" viewBox="0 0 24 24" fill="none" xmlns="http://www.w3.org/2000/svg">
<g clip-path="url(#clip0)">
<path d="M20.3303 9.76271C20.3303 13.1325 17.5985 15.8644 14.2286 15.8644C10.8586 15.8644 8.12695 13.1325 8.12695 9.76271C8.12695 6.39287 10.8586 3.66101 14.2286 3.66101C17.5985 3.66101 20.3303 6.39287 20.3303 9.76271Z" fill="#FDD020"/>
<path d="M14.229 2.44068C14.0042 2.44068 13.8223 2.25854 13.8223 2.0339V0.40678C13.8223 0.182137 14.0042 0 14.229 0C14.4537 0 14.6358 0.182137 14.6358 0.40678V2.0339C14.6358 2.25854 14.4537 2.44068 14.229 2.44068Z" fill="#FDD020"/>
<path d="M23.5847 10.1695H21.9576C21.7327 10.1695 21.5508 9.98735 21.5508 9.7627C21.5508 9.53806 21.7327 9.35593 21.9576 9.35593H23.5847C23.8093 9.35593 23.9915 9.53806 23.9915 9.7627C23.9915 9.98735 23.8093 10.1695 23.5847 10.1695Z" fill="#FDD020"/>
<path d="M19.1104 15.0508C18.8128 15.0508 18.5159 15.0806 18.2243 15.1394C18.0044 14.042 17.2936 13.1059 16.2955 12.5992C15.2976 12.0926 14.1224 12.0713 13.1066 12.5414C12.1874 10.0094 9.38957 8.70207 6.85752 9.62129C4.32548 10.5407 3.01814 13.3385 3.93737 15.8706C1.71935 15.9407 -0.0327067 17.7764 0.000463295 19.9954C0.0338319 22.2142 1.84031 23.9964 4.05952 24H19.1104C21.5814 24 23.5849 21.9967 23.5849 19.5254C23.5849 17.0542 21.5814 15.0508 19.1104 15.0508Z" fill="#A3D4F7"/>
<path d="M8.53435 4.06779L6.90723 2.44067L8.53435 4.06779Z" fill="#FDD020"/>
<path d="M8.5341 4.47458C8.42605 4.47458 8.32277 4.43168 8.2465 4.35541L6.61938 2.72829C6.51351 2.6262 6.47121 2.47485 6.50835 2.33264C6.54569 2.19042 6.65672 2.07939 6.79894 2.04225C6.94115 2.00491 7.0923 2.04741 7.19459 2.15308L8.82171 3.7802C8.9379 3.89659 8.97266 4.07158 8.9097 4.22353C8.84674 4.37547 8.69856 4.47458 8.5341 4.47458Z" fill="#FDD020"/>
<path d="M19.9238 4.06779L21.5509 2.44067L19.9238 4.06779Z" fill="#FDD020"/>
<path d="M19.9244 4.47458C19.7597 4.47458 19.6115 4.37547 19.5486 4.22353C19.4856 4.07158 19.5204 3.89659 19.6368 3.7802L21.2639 2.15308C21.366 2.04741 21.5171 2.00491 21.6593 2.04225C21.8015 2.07939 21.9128 2.19042 21.9499 2.33264C21.9871 2.47485 21.9448 2.6262 21.8391 2.72829L20.212 4.35541C20.1357 4.43168 20.0322 4.47458 19.9244 4.47458Z" fill="#FDD020"/>
</g>
<defs>
<clipPath id="clip0">
<rect width="24" height="24" fill="white"/>
</clipPath>
</defs>
</svg>
