<svg width="24" height="24" viewBox="0 0 24 24" fill="none" xmlns="http://www.w3.org/2000/svg">
<g clip-path="url(#clip0)">
<path d="M19.4468 10.3679C19.144 10.3679 18.8419 10.398 18.5451 10.458C18.3214 9.3413 17.598 8.38871 16.5824 7.8731C15.5669 7.35749 14.371 7.33586 13.3373 7.81428C12.4019 5.23766 9.55487 3.90731 6.97825 4.84272C4.40163 5.77813 3.07127 8.62539 4.00668 11.2018C1.74961 11.2732 -0.0332825 13.1413 0.000471452 15.3992C0.0344275 17.6573 1.87271 19.4709 4.13099 19.4746H19.4468C21.9614 19.4746 24.0002 17.436 24.0002 14.9212C24.0002 12.4064 21.9614 10.3679 19.4468 10.3679Z" fill="#A3D4F7"/>
</g>
<defs>
<clipPath id="clip0">
<rect width="24" height="24" fill="white"/>
</clipPath>
</defs>
</svg>
