<svg width="10" height="11" viewBox="0 0 10 11" fill="none" xmlns="http://www.w3.org/2000/svg">
<path d="M7.75124 6.26869V4.79011L9.17048 6.20178C9.24169 6.27261 9.33496 6.308 9.42829 6.308C9.52157 6.308 9.61489 6.27261 9.6861 6.20178C9.82847 6.06017 9.82847 5.83057 9.6861 5.68902L7.75124 3.76448V3.54601V1.81138C7.75124 1.21556 7.22789 0.730835 6.58467 0.730835H3.78927C3.14605 0.730835 2.62269 1.21556 2.62269 1.81138V3.54601V3.76448L0.687833 5.68902C0.545462 5.83062 0.545462 6.06022 0.687833 6.20178C0.759042 6.27256 0.852368 6.308 0.945645 6.308C1.03892 6.308 1.13225 6.27261 1.20346 6.20178L2.62269 4.79011V6.26874L0.687833 8.19332C0.545462 8.33493 0.545462 8.56452 0.687881 8.70613C0.759042 8.77696 0.852368 8.81235 0.945645 8.81235C1.03892 8.81235 1.13225 8.77696 1.20346 8.70613L2.62269 7.29441V8.50211V9.57265C2.62269 10.1685 3.14605 10.6532 3.78927 10.6532H6.58467C7.22789 10.6532 7.75124 10.1685 7.75124 9.57265V8.50206V7.29436L9.17048 8.70608C9.24169 8.77691 9.33496 8.8123 9.42829 8.8123C9.52157 8.8123 9.61489 8.77691 9.68605 8.70608C9.82847 8.56448 9.82847 8.33493 9.6861 8.19327L7.75124 6.26869ZM7.02213 6.41905V8.13946H3.3518V6.41905C3.3518 6.41895 3.3518 6.4189 3.3518 6.41881V3.91494C3.3518 3.91479 3.3518 3.9146 3.3518 3.91446V3.90861H7.02213V3.91446C7.02213 3.9146 7.02213 3.91479 7.02213 3.91494V6.41881C7.02213 6.41886 7.02213 6.41895 7.02213 6.41905ZM3.78927 1.45603H6.58467C6.82182 1.45603 7.02213 1.61877 7.02213 1.81138V3.18341H3.3518V1.81138C3.3518 1.61877 3.55211 1.45603 3.78927 1.45603ZM6.58467 9.9279H3.78927C3.55211 9.9279 3.3518 9.76516 3.3518 9.57255V8.86466H7.02213V9.5726C7.02213 9.76521 6.82182 9.9279 6.58467 9.9279Z" fill="#CDCACA" fill-opacity="0.25"/>
</svg>
