<svg width="10" height="11" viewBox="0 0 10 11" fill="none" xmlns="http://www.w3.org/2000/svg">
<path d="M7.75124 6.48079V5.00221L9.17048 6.41388C9.24169 6.4847 9.33496 6.52009 9.42829 6.52009C9.52157 6.52009 9.61489 6.4847 9.6861 6.41388C9.82847 6.27227 9.82847 6.04267 9.6861 5.90111L7.75124 3.97658V3.7581V2.02348C7.75124 1.42765 7.22789 0.942932 6.58467 0.942932H3.78927C3.14605 0.942932 2.62269 1.42765 2.62269 2.02348V3.7581V3.97658L0.687833 5.90111C0.545462 6.04272 0.545462 6.27232 0.687833 6.41388C0.759042 6.48466 0.852368 6.52009 0.945645 6.52009C1.03892 6.52009 1.13225 6.4847 1.20346 6.41388L2.62269 5.00221V6.48084L0.687833 8.40542C0.545462 8.54702 0.545462 8.77662 0.687881 8.91823C0.759042 8.98906 0.852368 9.02445 0.945645 9.02445C1.03892 9.02445 1.13225 8.98906 1.20346 8.91823L2.62269 7.50651V8.71421V9.78474C2.62269 10.3806 3.14605 10.8653 3.78927 10.8653H6.58467C7.22789 10.8653 7.75124 10.3806 7.75124 9.78474V8.71416V7.50646L9.17048 8.91818C9.24169 8.98901 9.33496 9.0244 9.42829 9.0244C9.52157 9.0244 9.61489 8.98901 9.68605 8.91818C9.82847 8.77657 9.82847 8.54702 9.6861 8.40537L7.75124 6.48079ZM7.02213 6.63115V8.35156H3.3518V6.63115C3.3518 6.63105 3.3518 6.631 3.3518 6.63091V4.12704C3.3518 4.12689 3.3518 4.1267 3.3518 4.12655V4.1207H7.02213V4.12655C7.02213 4.1267 7.02213 4.12689 7.02213 4.12704V6.63091C7.02213 6.63095 7.02213 6.63105 7.02213 6.63115ZM3.78927 1.66813H6.58467C6.82182 1.66813 7.02213 1.83087 7.02213 2.02348V3.3955H3.3518V2.02348C3.3518 1.83087 3.55211 1.66813 3.78927 1.66813ZM6.58467 10.14H3.78927C3.55211 10.14 3.3518 9.97726 3.3518 9.78465V9.07676H7.02213V9.7847C7.02213 9.97731 6.82182 10.14 6.58467 10.14Z" fill="#00FFFF" fill-opacity="0.79"/>
</svg>
