<svg width="17" height="12" viewBox="0 0 17 12" fill="none" xmlns="http://www.w3.org/2000/svg">
<path d="M13.7546 3.15897C13.4939 3.15897 13.2825 3.38129 13.2825 3.65551V4.15206H12.3383V3.65551C12.3383 3.38129 12.1269 3.15897 11.8662 3.15897H11.1175L10.3116 2.3113C10.223 2.21818 10.103 2.16587 9.97775 2.16587H9.50564V1.17278H9.97775C10.2385 1.17278 10.4499 0.95046 10.4499 0.676234C10.4499 0.402008 10.2385 0.179688 9.97775 0.179688H5.1937C4.93297 0.179688 4.72159 0.402008 4.72159 0.676234C4.72159 0.95046 4.93297 1.17278 5.1937 1.17278H5.66581V2.16587H5.1937C5.06847 2.16587 4.94842 2.21818 4.85989 2.3113L4.05393 3.15897H2.36104C2.10031 3.15897 1.88893 3.38129 1.88893 3.65551V5.6417H0.944709V3.65551C0.944709 3.38129 0.733329 3.15897 0.472598 3.15897C0.211868 3.15897 0.000488281 3.38129 0.000488281 3.65551V8.62098C0.000488281 8.89521 0.211868 9.11753 0.472598 9.11753C0.733329 9.11753 0.944709 8.89521 0.944709 8.62098V6.63479H1.88893V8.62098C1.88893 8.89521 2.10031 9.11753 2.36104 9.11753H4.05393L5.80411 10.9583C5.89264 11.0514 6.01269 11.1037 6.13792 11.1037H10.922C11.1008 11.1037 11.2643 10.9975 11.3443 10.8292L12.158 9.11753H13.2825V9.61407C13.2825 9.8883 13.4939 10.1106 13.7546 10.1106C15.0562 10.1106 16.1152 8.99687 16.1152 7.62789V5.6417C16.1152 4.27272 15.0562 3.15897 13.7546 3.15897ZM3.77737 8.12443H2.83315V4.15206H3.77737V8.12443ZM6.61003 1.17278H8.56142V2.16587H6.61003V1.17278ZM11.3941 8.50376L10.6302 10.1106H6.33347L4.72159 8.41531V3.86118L5.38925 3.15897C5.58127 3.15897 9.61287 3.15897 9.78217 3.15897L10.5881 4.00664C10.6767 4.09976 10.7967 4.15206 10.922 4.15206H11.3941C11.3941 4.35508 11.3941 8.34215 11.3941 8.50376ZM13.2825 8.12443H12.3383V5.14515H13.2825V8.12443ZM15.171 7.62789C15.171 8.27525 14.7763 8.82751 14.2267 9.03245C14.2267 8.68374 14.2267 4.36862 14.2267 4.23717C14.7763 4.44211 15.171 4.99434 15.171 5.64173V7.62789Z" fill="#FFBE15"/>
<path d="M9.03287 6.13824H7.90833L8.51093 4.87065C8.62755 4.62535 8.533 4.32709 8.29981 4.20445C8.06659 4.0818 7.783 4.18124 7.66639 4.4265L6.72217 6.41269C6.56559 6.74207 6.79352 7.13133 7.14443 7.13133H8.26896L7.66636 8.39892C7.54975 8.64421 7.6443 8.94247 7.87749 9.06512C8.11081 9.1878 8.39435 9.08823 8.5109 8.84307L9.45512 6.85687C9.61171 6.5275 9.38377 6.13824 9.03287 6.13824Z" fill="#FFBE15"/>
</svg>
