<svg width="17" height="12" viewBox="0 0 17 12" fill="none" xmlns="http://www.w3.org/2000/svg">
<path d="M13.7546 3.94693C13.4939 3.94693 13.2825 4.16925 13.2825 4.44348V4.94002H12.3383V4.44348C12.3383 4.16925 12.1269 3.94693 11.8662 3.94693H11.1175L10.3116 3.09926C10.223 3.00614 10.103 2.95384 9.97775 2.95384H9.50564V1.96074H9.97775C10.2385 1.96074 10.4499 1.73842 10.4499 1.4642C10.4499 1.18997 10.2385 0.967651 9.97775 0.967651H5.1937C4.93297 0.967651 4.72159 1.18997 4.72159 1.4642C4.72159 1.73842 4.93297 1.96074 5.1937 1.96074H5.66581V2.95384H5.1937C5.06847 2.95384 4.94842 3.00614 4.85989 3.09926L4.05393 3.94693H2.36104C2.10031 3.94693 1.88893 4.16925 1.88893 4.44348V6.42967H0.944709V4.44348C0.944709 4.16925 0.733329 3.94693 0.472598 3.94693C0.211868 3.94693 0.000488281 4.16925 0.000488281 4.44348V9.40895C0.000488281 9.68317 0.211868 9.90549 0.472598 9.90549C0.733329 9.90549 0.944709 9.68317 0.944709 9.40895V7.42276H1.88893V9.40895C1.88893 9.68317 2.10031 9.90549 2.36104 9.90549H4.05393L5.80411 11.7463C5.89264 11.8394 6.01269 11.8917 6.13792 11.8917H10.922C11.1008 11.8917 11.2643 11.7854 11.3443 11.6172L12.158 9.90549H13.2825V10.402C13.2825 10.6763 13.4939 10.8986 13.7546 10.8986C15.0562 10.8986 16.1152 9.78483 16.1152 8.41585V6.42967C16.1152 5.06069 15.0562 3.94693 13.7546 3.94693ZM3.77737 8.9124H2.83315V4.94002H3.77737V8.9124ZM6.61003 1.96074H8.56142V2.95384H6.61003V1.96074ZM11.3941 9.29173L10.6302 10.8986H6.33347L4.72159 9.20327V4.64915L5.38925 3.94693C5.58127 3.94693 9.61287 3.94693 9.78217 3.94693L10.5881 4.7946C10.6767 4.88772 10.7967 4.94002 10.922 4.94002H11.3941C11.3941 5.14305 11.3941 9.13012 11.3941 9.29173ZM13.2825 8.9124H12.3383V5.93312H13.2825V8.9124ZM15.171 8.41585C15.171 9.06322 14.7763 9.61547 14.2267 9.82042C14.2267 9.47171 14.2267 5.15659 14.2267 5.02513C14.7763 5.23007 15.171 5.7823 15.171 6.4297V8.41585Z" fill="#CDCACA" fill-opacity="0.25"/>
<path d="M9.03287 6.92614H7.90833L8.51093 5.65855C8.62755 5.41326 8.533 5.115 8.29981 4.99235C8.06659 4.8697 7.783 4.96914 7.66639 5.21441L6.72217 7.2006C6.56559 7.52997 6.79352 7.91923 7.14443 7.91923H8.26896L7.66636 9.18682C7.54975 9.43212 7.6443 9.73038 7.87749 9.85302C8.11081 9.9757 8.39435 9.87613 8.5109 9.63097L9.45512 7.64478C9.61171 7.3154 9.38377 6.92614 9.03287 6.92614Z" fill="#CDCACA" fill-opacity="0.25"/>
</svg>
