<svg width="13" height="11" viewBox="0 0 13 11" fill="none" xmlns="http://www.w3.org/2000/svg">
<path d="M8.3284 7.2399H12.7408V8.19396H8.1774C8.23285 7.90085 8.28493 7.58099 8.3284 7.2399ZM8.4483 5.40332C8.4483 5.56441 8.4453 5.72346 8.43987 5.88036H12.7408V4.92629H8.43987C8.4453 5.0831 8.4483 5.24223 8.4483 5.40332ZM8.16372 2.54113C8.2203 2.83313 8.27397 3.15308 8.31912 3.4952H12.7408V2.54113H8.16372ZM6.79685 9.7363C6.82514 9.65683 7.48909 7.76212 7.48909 5.40332C7.48909 3.04453 6.82514 1.14973 6.79685 1.07025L6.6762 0.730835L6.315 0.753196C6.25654 0.756829 4.86719 0.848416 3.45807 1.43641C1.49863 2.25389 0.462891 3.62563 0.462891 5.40332C0.462891 7.18092 1.49863 8.55266 3.45807 9.37023C4.86719 9.95814 6.25645 10.0498 6.3149 10.0535L6.6762 10.0758L6.79685 9.7363ZM6.52988 5.40332C6.52988 7.01824 6.1861 8.4267 6.00353 9.06091C5.5273 8.99699 4.66102 8.84075 3.80888 8.48204C2.22515 7.81513 1.4221 6.77936 1.4221 5.40332C1.4221 4.02729 2.22515 2.99143 3.80888 2.32461C4.6613 1.96571 5.52796 1.80947 6.00391 1.74565C6.18666 2.37846 6.52988 3.78309 6.52988 5.40332Z" fill="#CDCACA" fill-opacity="0.25"/>
</svg>
