<svg width="13" height="11" viewBox="0 0 13 11" fill="none" xmlns="http://www.w3.org/2000/svg">
<path d="M8.32791 7.45199H12.7403V8.40606H8.17691C8.23236 8.11294 8.28444 7.79309 8.32791 7.45199ZM8.44781 5.61542C8.44781 5.77651 8.44481 5.93555 8.43938 6.09245H12.7403V5.13839H8.43938C8.44481 5.29519 8.44781 5.45433 8.44781 5.61542ZM8.16323 2.75323C8.21981 3.04523 8.27348 3.36517 8.31863 3.70729H12.7403V2.75323H8.16323ZM6.79636 9.9484C6.82465 9.86892 7.4886 7.97421 7.4886 5.61542C7.4886 3.25663 6.82465 1.36183 6.79636 1.28235L6.67571 0.942932L6.31451 0.965293C6.25606 0.968927 4.8667 1.06051 3.45759 1.64851C1.49814 2.46599 0.462402 3.83773 0.462402 5.61542C0.462402 7.39302 1.49814 8.76476 3.45759 9.58233C4.8667 10.1702 6.25596 10.2619 6.31441 10.2655L6.67571 10.2879L6.79636 9.9484ZM6.52939 5.61542C6.52939 7.23034 6.18561 8.6388 6.00305 9.27301C5.52681 9.20909 4.66053 9.05284 3.80839 8.69414C2.22467 8.02723 1.42161 6.99145 1.42161 5.61542C1.42161 4.23939 2.22467 3.20352 3.80839 2.5367C4.66081 2.17781 5.52747 2.02156 6.00342 1.95774C6.18618 2.59055 6.52939 3.99519 6.52939 5.61542Z" fill="#001AFF"/>
</svg>
