<svg width="9" height="11" viewBox="0 0 9 11" fill="none" xmlns="http://www.w3.org/2000/svg">
<path d="M8.15548 3.0953L8.16315 3.08767L6.25752 1.19736L5.71525 1.73671L6.79467 2.81034C6.3138 2.99352 5.97103 3.45403 5.97103 3.99594C5.97103 4.69813 6.54398 5.26801 7.24996 5.26801C7.43156 5.26801 7.60552 5.22985 7.76153 5.16116V8.82984C7.76155 9.10972 7.53134 9.33869 7.24998 9.33869C6.96863 9.33869 6.73842 9.10972 6.73842 8.82986V6.54011C6.73842 5.97786 6.28056 5.52244 5.71525 5.52244H5.20368V1.96061C5.20366 1.39833 4.7458 0.942932 4.18052 0.942932H1.11105C0.545745 0.942932 0.0878906 1.39833 0.0878906 1.96061V10.1019H5.20366V6.28569H5.97103V8.82986C5.97103 9.53206 6.54398 10.1019 7.24996 10.1019C7.95594 10.1019 8.5289 9.53206 8.5289 8.82986V3.99594C8.52892 3.64484 8.38569 3.32683 8.15548 3.0953ZM4.18052 4.50476H1.11105V1.96061H4.18052V4.50476ZM7.24998 4.50476C6.96863 4.50476 6.73842 4.27579 6.73842 3.99594C6.73842 3.71608 6.96863 3.48711 7.24998 3.48711C7.53134 3.48711 7.76155 3.71608 7.76155 3.99594C7.76155 4.27579 7.53134 4.50476 7.24998 4.50476Z" fill="#F1821C"/>
</svg>
