<svg width="9" height="10" viewBox="0 0 9 10" fill="none" xmlns="http://www.w3.org/2000/svg">
<path d="M8.15499 2.8832L8.16266 2.87557L6.25703 0.98526L5.71476 1.52462L6.79418 2.59825C6.31331 2.78143 5.97054 3.24193 5.97054 3.78384C5.97054 4.48603 6.5435 5.05591 7.24947 5.05591C7.43107 5.05591 7.60503 5.01775 7.76104 4.94906V8.61774C7.76107 8.89762 7.53086 9.12659 7.2495 9.12659C6.96814 9.12659 6.73793 8.89762 6.73793 8.61777V6.32802C6.73793 5.76576 6.28007 5.31034 5.71476 5.31034H5.20319V1.74851C5.20317 1.18623 4.74532 0.730835 4.18003 0.730835H1.11057C0.545256 0.730835 0.0874023 1.18623 0.0874023 1.74851V9.88984H5.20317V6.07359H5.97054V8.61777C5.97054 9.31996 6.5435 9.88984 7.24947 9.88984C7.95545 9.88984 8.52841 9.31996 8.52841 8.61777V3.78384C8.52843 3.43274 8.3852 3.11473 8.15499 2.8832ZM4.18003 4.29266H1.11057V1.74851H4.18003V4.29266ZM7.2495 4.29266C6.96814 4.29266 6.73793 4.06369 6.73793 3.78384C6.73793 3.50399 6.96814 3.27501 7.2495 3.27501C7.53086 3.27501 7.76107 3.50399 7.76107 3.78384C7.76107 4.06369 7.53086 4.29266 7.2495 4.29266Z" fill="#CDCACA" fill-opacity="0.25"/>
</svg>
