<svg width="11" height="11" viewBox="0 0 11 11" fill="none" xmlns="http://www.w3.org/2000/svg">
<path d="M8.09077 0.730835L6.98218 1.83349C6.95356 1.86196 6.9306 1.89555 6.91456 1.93248L6.2744 3.40504C6.2222 3.52517 6.24899 3.66483 6.34202 3.75738L7.80934 5.21684C7.87077 5.27794 7.95285 5.31034 8.0363 5.31034C8.07921 5.31034 8.12249 5.30176 8.16354 5.28412L9.64412 4.6475C9.68127 4.63152 9.71506 4.60869 9.74368 4.58022L10.8522 3.47756L8.09077 0.730835Z" fill="#CDCACA" fill-opacity="0.26"/>
<path d="M7.0154 6.67962C7.0154 6.49459 6.94296 6.32062 6.8114 6.18979L5.36386 4.75C5.2323 4.61915 5.0574 4.54712 4.87137 4.54712C4.68533 4.54712 4.51045 4.61917 4.37889 4.75L3.50662 5.61758L2.61479 5.59907C2.51862 5.59696 2.42768 5.63383 2.36034 5.70081L0.978845 7.07487C0.842338 7.21065 0.842338 7.43074 0.978845 7.56651L1.43288 8.01812L2.4225 7.03379C2.48805 6.96859 2.57695 6.93194 2.66963 6.93194C2.7623 6.93194 2.85123 6.96857 2.91678 7.03379L4.51529 8.62372C4.6518 8.7595 4.6518 8.97959 4.51529 9.11537L3.52565 10.0997L3.97967 10.5513C4.04791 10.6192 4.13738 10.6531 4.22682 10.6531C4.31626 10.6531 4.40572 10.6192 4.47394 10.5513L5.85546 9.17717C5.9228 9.11019 5.95976 9.0188 5.95777 8.92411L5.93912 8.03705L6.81137 7.1695C6.94296 7.03862 7.0154 6.86466 7.0154 6.67962ZM5.59771 6.90472C5.52947 6.9726 5.44001 7.00657 5.35057 7.00657C5.26112 7.00657 5.17166 6.97264 5.10344 6.90472L4.64493 6.44867C4.50842 6.31289 4.50842 6.0928 4.64493 5.95702C4.78141 5.82125 5.00271 5.82125 5.13922 5.95702L5.59773 6.41308C5.7342 6.54887 5.7342 6.76899 5.59771 6.90472Z" fill="#CDCACA" fill-opacity="0.26"/>
</svg>
