<svg width="11" height="11" viewBox="0 0 11 11" fill="none" xmlns="http://www.w3.org/2000/svg">
<path d="M8.09028 0.942993L6.9817 2.04565C6.95308 2.07412 6.93012 2.10771 6.91408 2.14464L6.27392 3.6172C6.22171 3.73733 6.2485 3.87699 6.34153 3.96954L7.80885 5.429C7.87028 5.4901 7.95237 5.5225 8.03581 5.5225C8.07872 5.5225 8.122 5.51392 8.16305 5.49628L9.64363 4.85966C9.68078 4.84368 9.71457 4.82085 9.74319 4.79238L10.8518 3.68972L8.09028 0.942993Z" fill="#FF0000"/>
<path d="M7.01491 6.89178C7.01491 6.70674 6.94247 6.53278 6.81091 6.40195L5.36337 4.96216C5.23181 4.83131 5.05691 4.75928 4.87088 4.75928C4.68484 4.75928 4.50996 4.83133 4.3784 4.96216L3.50613 5.82974L2.6143 5.81123C2.51814 5.80912 2.4272 5.84599 2.35985 5.91297L0.978357 7.28703C0.84185 7.4228 0.84185 7.6429 0.978357 7.77867L1.4324 8.23027L2.42201 7.24595C2.48756 7.18075 2.57647 7.1441 2.66914 7.1441C2.76182 7.1441 2.85074 7.18073 2.91629 7.24595L4.5148 8.83588C4.65131 8.97166 4.65131 9.19175 4.5148 9.32753L3.52516 10.3119L3.97918 10.7634C4.04742 10.8313 4.13689 10.8653 4.22633 10.8653C4.31577 10.8653 4.40523 10.8313 4.47345 10.7634L5.85497 9.38933C5.92232 9.32235 5.95927 9.23096 5.95728 9.13627L5.93863 8.24921L6.81089 7.38166C6.94247 7.25078 7.01491 7.07682 7.01491 6.89178ZM5.59722 7.11688C5.52898 7.18476 5.43952 7.21873 5.35008 7.21873C5.26064 7.21873 5.17117 7.1848 5.10295 7.11688L4.64444 6.66083C4.50793 6.52505 4.50793 6.30496 4.64444 6.16918C4.78092 6.03341 5.00222 6.03341 5.13873 6.16918L5.59725 6.62524C5.73371 6.76103 5.73371 6.98115 5.59722 7.11688Z" fill="#FF0000"/>
</svg>
