<svg xmlns="http://www.w3.org/2000/svg" height="512pt" version="1.1" viewBox="0 -38 512.00061 512" width="512pt">
<g id="surface1">
<path d="M 501.636719 186.421875 C 500.117188 185.929688 486.332031 181.589844 470.589844 181.589844 C 460.734375 181.589844 452.089844 183.320312 444.8125 186.722656 C 444.667969 184.207031 444.488281 181.699219 444.242188 179.195312 C 456.59375 175.703125 473.425781 168.664062 482.996094 155.003906 C 498.441406 132.949219 491.179688 98.976562 490.304688 95.175781 C 488.574219 87.703125 481.484375 82.742188 473.867188 83.667969 C 470.179688 84.117188 438.859375 88.492188 422.527344 107.925781 C 421.410156 105.855469 420.257812 103.792969 419.058594 101.761719 C 418.980469 101.625 418.894531 101.492188 418.8125 101.359375 C 428.527344 92.96875 440.796875 79.484375 443.691406 63.070312 C 448.367188 36.550781 427.433594 8.835938 425.03125 5.761719 C 420.304688 -0.28125 411.78125 -1.785156 405.269531 2.277344 C 402.121094 4.246094 375.5625 21.460938 368.984375 45.996094 C 363.105469 41.609375 356.976562 37.539062 350.605469 33.851562 C 343.433594 29.703125 334.257812 32.152344 330.109375 39.320312 C 325.960938 46.492188 328.410156 55.667969 335.582031 59.816406 C 355 71.054688 371.496094 86.128906 384.359375 103.738281 C 384.996094 104.652344 385.542969 105.402344 385.972656 105.980469 C 398.46875 123.722656 407.320312 143.933594 411.792969 165.359375 C 412.242188 168.136719 412.664062 170.078125 412.835938 170.828125 C 412.839844 170.839844 412.84375 170.851562 412.847656 170.863281 C 414.363281 179.648438 415.152344 188.613281 415.152344 197.679688 C 415.152344 209.902344 413.761719 221.804688 411.140625 233.242188 C 410.191406 236.472656 409.671875 238.785156 409.492188 239.628906 C 409.46875 239.746094 409.457031 239.867188 409.433594 239.984375 C 403.617188 261.0625 393.5625 280.398438 380.246094 297.015625 C 379.308594 298.125 378.558594 299.050781 378.042969 299.710938 C 364.226562 316.210938 347.140625 329.878906 327.78125 339.699219 C 324.984375 340.941406 323.117188 341.910156 322.53125 342.222656 C 322.476562 342.25 322.429688 342.285156 322.378906 342.3125 C 302.164062 351.625 279.679688 356.832031 256 356.832031 C 232.320312 356.832031 209.832031 351.625 189.613281 342.308594 C 189.5625 342.28125 189.519531 342.25 189.46875 342.222656 C 188.882812 341.910156 187.023438 340.945312 184.226562 339.703125 C 164.867188 329.878906 147.773438 316.210938 133.957031 299.707031 C 133.441406 299.050781 132.691406 298.125 131.753906 297.019531 C 118.441406 280.398438 108.386719 261.066406 102.566406 239.988281 C 102.546875 239.867188 102.535156 239.75 102.507812 239.628906 C 102.328125 238.785156 101.808594 236.472656 100.855469 233.242188 C 98.238281 221.804688 96.847656 209.902344 96.847656 197.679688 C 96.847656 188.617188 97.636719 179.65625 99.152344 170.871094 C 99.152344 170.855469 99.160156 170.84375 99.164062 170.828125 C 99.335938 170.078125 99.761719 168.136719 100.207031 165.355469 C 104.679688 143.945312 113.519531 123.75 126.003906 106.015625 C 126.445312 105.425781 127.011719 104.648438 127.671875 103.699219 C 140.53125 86.105469 157.015625 71.046875 176.425781 59.816406 C 183.59375 55.671875 186.046875 46.496094 181.898438 39.324219 C 177.75 32.152344 168.574219 29.703125 161.402344 33.851562 C 155.027344 37.539062 148.898438 41.613281 143.019531 46 C 136.445312 21.460938 109.882812 4.246094 106.730469 2.277344 C 100.222656 -1.785156 91.695312 -0.28125 86.96875 5.761719 C 84.566406 8.835938 63.632812 36.550781 68.308594 63.074219 C 71.203125 79.488281 83.472656 92.972656 93.1875 101.359375 C 93.109375 101.496094 93.023438 101.625 92.941406 101.761719 C 91.742188 103.792969 90.59375 105.855469 89.476562 107.929688 C 73.140625 88.492188 41.820312 84.117188 38.136719 83.667969 C 30.523438 82.738281 23.425781 87.699219 21.699219 95.179688 C 20.820312 98.980469 13.5625 132.949219 29.007812 155.003906 C 38.574219 168.664062 55.40625 175.703125 67.757812 179.199219 C 67.511719 181.699219 67.332031 184.210938 67.183594 186.726562 C 59.910156 183.324219 51.269531 181.59375 41.410156 181.59375 C 25.671875 181.59375 11.882812 185.929688 10.363281 186.421875 C 3.066406 188.796875 -1.265625 196.296875 0.328125 203.800781 C 1.140625 207.617188 8.917969 241.46875 32.238281 254.9375 C 40.164062 259.511719 49.988281 261.832031 61.429688 261.832031 C 61.433594 261.832031 61.433594 261.832031 61.4375 261.832031 C 67.257812 261.832031 72.808594 261.238281 77.574219 260.464844 C 78.414062 262.84375 79.292969 265.203125 80.222656 267.535156 C 80.214844 267.535156 80.207031 267.535156 80.199219 267.535156 C 54.8125 267.535156 31.226562 288.859375 28.621094 291.289062 C 23.011719 296.523438 22.253906 305.148438 26.871094 311.28125 C 29.21875 314.394531 50.574219 341.789062 77.402344 344.136719 C 78.675781 344.25 79.980469 344.304688 81.285156 344.304688 C 81.289062 344.304688 81.285156 344.304688 81.289062 344.304688 C 96.539062 344.304688 111.132812 336.613281 120.925781 329.945312 C 122.691406 331.75 124.488281 333.519531 126.324219 335.25 C 103.253906 345.953125 90.878906 375.164062 89.484375 378.613281 C 86.609375 385.730469 89.574219 393.867188 96.347656 397.472656 C 98.523438 398.628906 118.1875 408.773438 138.640625 408.773438 C 138.640625 408.773438 138.640625 408.773438 138.644531 408.773438 C 144.929688 408.773438 150.78125 407.804688 156.03125 405.894531 C 171.703125 400.191406 182.855469 385.753906 189.425781 374.722656 C 194.816406 376.757812 200.320312 378.550781 205.929688 380.089844 C 197.199219 388.96875 189.203125 400.269531 182.1875 413.824219 C 178.378906 421.179688 181.257812 430.230469 188.617188 434.039062 C 195.972656 437.847656 205.023438 434.972656 208.832031 427.613281 C 222.246094 401.695312 239.4375 386.832031 256.003906 386.832031 C 272.566406 386.832031 289.761719 401.695312 303.171875 427.613281 C 305.839844 432.765625 311.078125 435.71875 316.507812 435.71875 C 318.828125 435.71875 321.1875 435.179688 323.390625 434.039062 C 330.746094 430.230469 333.625 421.179688 329.816406 413.820312 C 322.800781 400.265625 314.804688 388.964844 306.074219 380.089844 C 311.683594 378.550781 317.1875 376.757812 322.574219 374.722656 C 329.148438 385.75 340.300781 400.191406 355.976562 405.894531 C 361.222656 407.804688 367.074219 408.773438 373.363281 408.773438 C 393.816406 408.773438 413.476562 398.628906 415.652344 397.46875 C 422.429688 393.867188 425.390625 385.730469 422.515625 378.613281 C 421.125 375.164062 408.75 345.949219 385.679688 335.25 C 387.515625 333.515625 389.3125 331.746094 391.078125 329.945312 C 400.871094 336.613281 415.464844 344.304688 430.714844 344.304688 C 432.019531 344.304688 433.328125 344.25 434.601562 344.136719 C 461.429688 341.789062 482.785156 314.394531 485.128906 311.28125 C 489.746094 305.148438 488.992188 296.523438 483.378906 291.289062 C 480.777344 288.859375 457.1875 267.535156 431.800781 267.535156 C 431.792969 267.535156 431.785156 267.535156 431.777344 267.535156 C 432.710938 265.203125 433.589844 262.84375 434.425781 260.464844 C 439.191406 261.238281 444.746094 261.832031 450.570312 261.832031 C 462.015625 261.832031 471.835938 259.511719 479.765625 254.9375 C 503.082031 241.46875 510.863281 207.621094 511.671875 203.804688 C 513.265625 196.292969 508.9375 188.796875 501.636719 186.421875 Z M 501.636719 186.421875 " style=" stroke:none;fill-rule:nonzero;fill:#ff9000;fill-opacity:1;" />
</g>
</svg>