<svg width="22" height="22" viewBox="0 0 22 22" fill="none" xmlns="http://www.w3.org/2000/svg">
<path d="M8.11564 3.8008L4.44891 0.134065C4.27015 -0.0446885 3.97955 -0.0446885 3.8008 0.134065C3.62204 0.312819 3.62204 0.603423 3.8008 0.782177L7.14397 4.1244L4.1253 7.14306L0.782177 3.8008C0.603423 3.62204 0.312819 3.62204 0.134065 3.8008C-0.0446885 3.97955 -0.0446885 4.27015 0.134065 4.44891L3.8008 8.11564C3.89065 8.20454 4.00795 8.24949 4.1253 8.24949C4.24265 8.24949 4.35996 8.20459 4.44891 8.11564L8.11564 4.44891C8.29439 4.27015 8.29439 3.97955 8.11564 3.8008Z" fill="white"/>
<path d="M11.1341 4.98498L9.68019 3.5311C9.14393 2.99484 8.27216 2.99484 7.7359 3.5311L3.55765 7.70935C3.2973 7.9706 3.1543 8.31621 3.1543 8.68377C3.1543 9.05043 3.2973 9.39513 3.55581 9.65269C3.99031 10.0863 4.55408 10.6647 4.98309 11.1075C5.24159 11.3742 5.5872 11.5227 5.95751 11.5255C5.96211 11.5255 5.96576 11.5255 5.96941 11.5255C6.33702 11.5255 6.68168 11.3825 6.94203 11.1212L11.134 6.92923C11.6703 6.39301 11.6703 5.52124 11.1341 4.98498ZM10.4869 6.28206L6.29491 10.4741C6.20691 10.5621 6.0758 10.6052 5.96675 10.6088C5.8439 10.6079 5.72934 10.5593 5.64314 10.4704C5.21048 10.024 4.64302 9.44188 4.20486 9.00462C4.11871 8.91847 4.07101 8.80477 4.07101 8.68377C4.07101 8.56092 4.11867 8.44542 4.20576 8.35836L8.38401 4.18012C8.47386 4.09027 8.59116 4.04627 8.70851 4.04627C8.82586 4.04627 8.94317 4.09027 9.03302 4.18012L10.4869 5.63305C10.5731 5.72015 10.6207 5.83471 10.6207 5.95756C10.6207 6.08041 10.5731 6.19501 10.4869 6.28206Z" fill="white"/>
<path d="M13.1582 9.75912L10.4081 7.00907C10.2294 6.83031 9.93879 6.83031 9.76003 7.00907C9.58128 7.18782 9.58128 7.47842 9.76003 7.65717L12.1856 10.0827L10.0836 12.1847L7.65718 9.75912C7.47842 9.58036 7.18782 9.58036 7.00907 9.75912C6.83031 9.93787 6.83031 10.2285 7.00907 10.4072L9.75913 13.1573C9.84898 13.2462 9.96629 13.2911 10.0836 13.2911C10.201 13.2911 10.3183 13.2462 10.4081 13.1573L13.1582 10.4072C13.337 10.2284 13.337 9.93787 13.1582 9.75912Z" fill="white"/>
<path d="M9.03224 5.63407C8.85349 5.45531 8.56289 5.45531 8.38413 5.63407L5.63407 8.38413C5.45531 8.56288 5.45531 8.85349 5.63407 9.03224C5.72392 9.12115 5.84122 9.16609 5.95857 9.16609C6.07592 9.16609 6.19323 9.12119 6.28218 9.03224L9.03224 6.28218C9.211 6.10338 9.211 5.81282 9.03224 5.63407Z" fill="white"/>
<path d="M21.8659 17.5511L19.1159 14.8011C18.9371 14.6223 18.6465 14.6223 18.4678 14.8011L14.8011 18.4678C14.6223 18.6465 14.6223 18.9371 14.8011 19.1159L17.5511 21.866C17.641 21.9549 17.7583 21.9998 17.8756 21.9998C17.993 21.9998 18.1103 21.9549 18.1992 21.8651C18.378 21.6863 18.378 21.3957 18.1992 21.2169L15.7737 18.7914L18.7923 15.7727L21.2179 18.1992C21.3966 18.3779 21.6872 18.3779 21.866 18.1992C22.0447 18.0205 22.0447 17.7299 21.8659 17.5511Z" fill="white"/>
<path d="M19.2174 14.9542C19.1908 14.8864 19.1496 14.8277 19.0973 14.7819C18.9406 14.5793 18.2054 13.4454 16.5774 10.8181C16.3565 10.4615 15.9907 10.2287 15.5745 10.1801C15.1537 10.1315 14.7412 10.2764 14.4406 10.577L10.5676 14.45C10.2715 14.747 10.1276 15.155 10.1734 15.5721C10.2193 15.9892 10.4484 16.3577 10.8023 16.5832L14.8797 19.1783C14.9558 19.2269 15.0411 19.2498 15.1263 19.2498C15.2446 19.2498 15.3619 19.204 15.449 19.1142L19.1157 15.4474C19.2449 15.3182 19.2853 15.1247 19.2174 14.9542ZM15.063 18.2076L11.2954 15.8104C11.1771 15.7353 11.101 15.6124 11.0855 15.4731C11.0699 15.3337 11.1185 15.1972 11.2166 15.0991L15.0896 11.2261C15.1785 11.1381 15.2949 11.0895 15.4168 11.0895C15.4342 11.0895 15.4517 11.0904 15.4718 11.0922C15.5516 11.1014 15.701 11.1408 15.8009 11.3021C17.1586 13.4939 17.8213 14.5609 18.1889 15.0816L15.063 18.2076Z" fill="white"/>
<path d="M16.3662 12.9681C16.1875 12.7893 15.8969 12.7893 15.7181 12.9681L12.9681 15.7181C12.7893 15.8969 12.7893 16.1875 12.9681 16.3662C13.0579 16.4551 13.1752 16.5001 13.2926 16.5001C13.4099 16.5001 13.5272 16.4552 13.6162 16.3662L16.3662 13.6162C16.545 13.4374 16.545 13.1468 16.3662 12.9681Z" fill="white"/>
<path d="M13.2923 4.58301C13.0393 4.58301 12.834 4.78836 12.834 5.04137V5.95804C12.834 6.21104 13.0393 6.4164 13.2923 6.4164C13.5453 6.4164 13.7507 6.21104 13.7507 5.95804V5.04137C13.7507 4.78836 13.5453 4.58301 13.2923 4.58301Z" fill="white"/>
<path d="M16.959 8.25H16.0423C15.7893 8.25 15.584 8.45535 15.584 8.70836C15.584 8.96136 15.7893 9.16672 16.0423 9.16672H16.959C17.212 9.16672 17.4174 8.96136 17.4174 8.70836C17.4174 8.45535 17.212 8.25 16.959 8.25Z" fill="white"/>
<path d="M16.3658 5.63407C16.1871 5.45531 15.8965 5.45531 15.7177 5.63407L14.8011 6.55074C14.6223 6.72949 14.6223 7.0201 14.8011 7.19885C14.8909 7.28776 15.0082 7.3327 15.1256 7.3327C15.2429 7.3327 15.3602 7.2878 15.4492 7.19885L16.3658 6.28218C16.5446 6.10338 16.5446 5.81282 16.3658 5.63407Z" fill="white"/>
<path d="M8.70933 15.583C8.45633 15.583 8.25098 15.7884 8.25098 16.0414V16.958C8.25098 17.211 8.45633 17.4164 8.70933 17.4164C8.96234 17.4164 9.16769 17.211 9.16769 16.958V16.0414C9.16769 15.7884 8.96234 15.583 8.70933 15.583Z" fill="white"/>
<path d="M5.95901 12.833H5.04234C4.78934 12.833 4.58398 13.0384 4.58398 13.2914C4.58398 13.5444 4.78934 13.7497 5.04234 13.7497H5.95901C6.21202 13.7497 6.41737 13.5444 6.41737 13.2914C6.41737 13.0384 6.21202 12.833 5.95901 12.833Z" fill="white"/>
<path d="M7.19886 14.8011C7.0201 14.6223 6.7295 14.6223 6.55074 14.8011L5.63407 15.7177C5.45531 15.8965 5.45531 16.1871 5.63407 16.3658C5.72392 16.4547 5.84122 16.4997 5.95857 16.4997C6.07593 16.4997 6.19323 16.4548 6.28218 16.3658L7.19886 15.4492C7.37761 15.2704 7.37761 14.9798 7.19886 14.8011Z" fill="white"/>
</svg>
