<svg width="22" height="20" viewBox="0 0 22 20" fill="none" xmlns="http://www.w3.org/2000/svg">
<path d="M22 12.0151C22.0014 9.38762 20.9639 6.86612 19.1136 5.00058C19.0912 4.96691 19.0623 4.93803 19.0286 4.91562C17.1627 3.06663 14.642 2.0293 12.0152 2.0293C9.38826 2.0293 6.86764 3.06663 5.00169 4.91562C4.96702 4.93844 4.93737 4.96809 4.91455 5.00276C3.06117 6.87436 2.02327 9.40306 2.02736 12.0371C2.03144 14.671 3.07716 17.1965 4.93634 19.0624C4.98692 19.1131 5.04702 19.1533 5.11319 19.1808C5.17935 19.2082 5.25028 19.2224 5.32192 19.2224C5.39355 19.2224 5.46448 19.2082 5.53065 19.1808C5.59681 19.1533 5.65691 19.1131 5.7075 19.0624L6.86207 17.9078C6.93873 17.8026 6.97516 17.6733 6.96475 17.5436C6.95434 17.4138 6.89778 17.292 6.80532 17.2004C6.71287 17.1087 6.59063 17.0532 6.46077 17.0439C6.33091 17.0346 6.20201 17.0721 6.09744 17.1497L5.34152 17.9056C4.02638 16.4214 3.24974 14.5374 3.13695 12.5576H4.20656C4.351 12.5576 4.48952 12.5002 4.59166 12.3981C4.69379 12.2959 4.75117 12.1574 4.75117 12.013C4.75117 11.8685 4.69379 11.73 4.59166 11.6279C4.48952 11.5257 4.351 11.4683 4.20656 11.4683H3.13695C3.25719 9.4891 4.03808 7.60744 5.35459 6.12465L6.09744 6.87839C6.1997 6.98065 6.3384 7.0381 6.48302 7.0381C6.62764 7.0381 6.76634 6.98065 6.86861 6.87839C6.97087 6.77613 7.02832 6.63743 7.02832 6.49281C7.02832 6.34819 6.97087 6.20949 6.86861 6.10722L6.11487 5.35349C7.60054 4.03473 9.48641 3.25368 11.4695 3.13584V4.20545C11.4695 4.34989 11.5268 4.48841 11.629 4.59055C11.7311 4.69268 11.8696 4.75006 12.0141 4.75006C12.1585 4.75006 12.297 4.69268 12.3992 4.59055C12.5013 4.48841 12.5587 4.34989 12.5587 4.20545V3.13584C14.5389 3.25621 16.4215 4.03791 17.9045 5.35566L17.1508 6.1094C17.0485 6.21167 16.9911 6.35036 16.9911 6.49498C16.9911 6.63961 17.0485 6.7783 17.1508 6.88057C17.2531 6.98283 17.3918 7.04028 17.5364 7.04028C17.681 7.04028 17.8197 6.98283 17.922 6.88057L18.6757 6.12683C19.9918 7.60904 20.7726 9.48986 20.8934 11.4683H19.8216C19.6771 11.4683 19.5386 11.5257 19.4365 11.6279C19.3343 11.73 19.277 11.8685 19.277 12.013C19.277 12.1574 19.3343 12.2959 19.4365 12.3981C19.5386 12.5002 19.6771 12.5576 19.8216 12.5576H20.8912C20.7766 14.5392 19.9968 16.4243 18.6779 17.9078L17.922 17.1519C17.8197 17.0496 17.681 16.9922 17.5364 16.9922C17.3918 16.9922 17.2531 17.0496 17.1508 17.1519C17.0485 17.2541 16.9911 17.3928 16.9911 17.5375C16.9911 17.6821 17.0485 17.8208 17.1508 17.923L18.3054 19.0776C18.356 19.1283 18.4161 19.1686 18.4822 19.196C18.5484 19.2235 18.6193 19.2376 18.691 19.2376C18.7626 19.2376 18.8335 19.2235 18.8997 19.196C18.9659 19.1686 19.026 19.1283 19.0765 19.0776C20.0066 18.1522 20.7439 17.0515 21.2458 15.8392C21.7476 14.627 22.0039 13.3272 22 12.0151Z" fill="white"/>
<path d="M12.0141 9.8214C11.6185 9.81981 11.2299 9.926 10.89 10.1286L8.56564 7.79546C8.46338 7.69319 8.32468 7.63574 8.18006 7.63574C8.03544 7.63574 7.89674 7.69319 7.79448 7.79546C7.69222 7.89772 7.63477 8.03642 7.63477 8.18104C7.63477 8.32566 7.69222 8.46436 7.79448 8.56662L10.1276 10.8997C9.88461 11.3172 9.78639 11.8033 9.84821 12.2824C9.91003 12.7615 10.1284 13.2068 10.4694 13.549C10.8104 13.8911 11.2549 14.111 11.7338 14.1745C12.2127 14.238 12.6991 14.1414 13.1175 13.8999C13.5358 13.6583 13.8626 13.2853 14.0471 12.8389C14.2316 12.3924 14.2634 11.8975 14.1375 11.4311C14.0117 10.9647 13.7353 10.553 13.3513 10.2599C12.9673 9.96682 12.4972 9.80883 12.0141 9.81051V9.8214ZM12.0141 13.1195C11.7957 13.1195 11.5821 13.0548 11.4005 12.9334C11.2189 12.812 11.0773 12.6396 10.9937 12.4377C10.9101 12.2359 10.8882 12.0139 10.9309 11.7996C10.9735 11.5854 11.0787 11.3886 11.2331 11.2341C11.3876 11.0796 11.5844 10.9745 11.7986 10.9318C12.0129 10.8892 12.2349 10.9111 12.4368 10.9947C12.6386 11.0783 12.8111 11.2198 12.9324 11.4015C13.0538 11.5831 13.1186 11.7966 13.1186 12.0151C13.118 12.3078 13.0014 12.5884 12.7944 12.7954C12.5874 13.0024 12.3068 13.119 12.0141 13.1195Z" fill="white"/>
<path d="M4.31363 4.74167L4.36155 4.7286L4.41601 4.71117L4.4683 4.68285L4.50969 4.66107C4.56914 4.62128 4.62021 4.57021 4.66 4.51076C4.66 4.49769 4.67307 4.48461 4.68178 4.47154C4.70365 4.43839 4.71917 4.40145 4.72753 4.36262C4.72753 4.34737 4.73842 4.33212 4.74278 4.3147C4.74626 4.2792 4.74626 4.24345 4.74278 4.20795V1.12765C4.74278 0.983212 4.6854 0.844688 4.58327 0.742555C4.48113 0.640421 4.34261 0.583043 4.19817 0.583043C4.05373 0.583043 3.91521 0.640421 3.81307 0.742555C3.71094 0.844688 3.65356 0.983212 3.65356 1.12765V2.89218L1.14619 0.376092C1.04361 0.276732 0.90612 0.221636 0.763318 0.222671C0.620517 0.223705 0.483835 0.280788 0.382713 0.381624C0.281592 0.48246 0.224123 0.618979 0.222684 0.761777C0.221245 0.904576 0.275952 1.04223 0.375021 1.14508L2.89111 3.66335H1.12658C0.982141 3.66335 0.843618 3.72072 0.741484 3.82286C0.639351 3.92499 0.581972 4.06352 0.581972 4.20795C0.581972 4.35239 0.639351 4.49092 0.741484 4.59305C0.843618 4.69518 0.982141 4.75256 1.12658 4.75256H4.20688C4.24274 4.75244 4.27849 4.74879 4.31363 4.74167Z" fill="white"/>
</svg>
