<svg width="22" height="22" viewBox="0 0 22 22" fill="none" xmlns="http://www.w3.org/2000/svg">
<g clip-path="url(#clip0_84_1217)">
<path d="M16.6545 12.2787V9.00037L19.7844 12.1304C19.9415 12.2874 20.1472 12.3659 20.353 12.3659C20.5587 12.3659 20.7645 12.2874 20.9216 12.1304C21.2355 11.8164 21.2355 11.3073 20.9216 10.9935L16.6545 6.72632V6.2419V2.39583C16.6545 1.07474 15.5004 0 14.0818 0H7.91701C6.49849 0 5.34431 1.07474 5.34431 2.39583V6.2419V6.72632L1.07728 10.9935C0.763303 11.3074 0.763303 11.8165 1.07728 12.1304C1.23432 12.2873 1.44014 12.3659 1.64585 12.3659C1.85155 12.3659 2.05737 12.2874 2.21441 12.1304L5.34431 9.00037V12.2788L1.07728 16.5461C0.763303 16.8601 0.763303 17.3691 1.07739 17.6831C1.23432 17.8402 1.44014 17.9186 1.64585 17.9186C1.85155 17.9186 2.05737 17.8402 2.21441 17.6831L5.34431 14.553V17.2308V19.6044C5.34431 20.9255 6.49849 22.0002 7.91701 22.0002H14.0818C15.5004 22.0002 16.6545 20.9255 16.6545 19.6044V17.2306V14.5529L19.7844 17.683C19.9415 17.8401 20.1472 17.9185 20.353 17.9185C20.5587 17.9185 20.7645 17.8401 20.9215 17.683C21.2355 17.369 21.2355 16.8601 20.9216 16.546L16.6545 12.2787ZM15.0466 12.6121V16.4267H6.95225V12.6121V7.05991V7.04587H15.0466V7.05884V12.6121ZM7.91701 1.60794H14.0818C14.6048 1.60794 15.0466 1.96876 15.0466 2.39583V5.43793H6.95225V2.39583C6.95225 1.96876 7.394 1.60794 7.91701 1.60794ZM14.0818 20.3921H7.91701C7.394 20.3921 6.95225 20.0312 6.95225 19.6042V18.0346H15.0466V19.6043C15.0466 20.0313 14.6048 20.3921 14.0818 20.3921Z" fill="white"/>
</g>
<defs>
<clipPath id="clip0_84_1217">
<rect width="22" height="22" fill="white"/>
</clipPath>
</defs>
</svg>
