<svg width="20" height="22" viewBox="0 0 20 22" fill="none" xmlns="http://www.w3.org/2000/svg">
<path d="M17.0703 7.77734C16.7467 7.77734 16.4844 8.06592 16.4844 8.42188V9.06641H15.3125V8.42188C15.3125 8.06592 15.0502 7.77734 14.7266 7.77734H13.7974L12.7971 6.67704C12.6872 6.55617 12.5382 6.48828 12.3828 6.48828H11.7969V5.19922H12.3828C12.7064 5.19922 12.9688 4.91064 12.9688 4.55469C12.9688 4.19873 12.7064 3.91016 12.3828 3.91016H6.44531C6.12172 3.91016 5.85938 4.19873 5.85938 4.55469C5.85938 4.91064 6.12172 5.19922 6.44531 5.19922H7.03125V6.48828H6.44531C6.28988 6.48828 6.1409 6.55617 6.03102 6.67704L5.03074 7.77734H2.92969C2.60609 7.77734 2.34375 8.06592 2.34375 8.42188V11H1.17188V8.42188C1.17188 8.06592 0.909531 7.77734 0.585938 7.77734C0.262344 7.77734 0 8.06592 0 8.42188V14.8672C0 15.2231 0.262344 15.5117 0.585938 15.5117C0.909531 15.5117 1.17188 15.2231 1.17188 14.8672V12.2891H2.34375V14.8672C2.34375 15.2231 2.60609 15.5117 2.92969 15.5117H5.03074L7.20289 17.9011C7.31277 18.022 7.46176 18.0898 7.61719 18.0898H13.5547C13.7766 18.0898 13.9795 17.9519 14.0788 17.7335L15.0887 15.5117H16.4844V16.1562C16.4844 16.5122 16.7467 16.8008 17.0703 16.8008C18.6857 16.8008 20 15.3551 20 13.5781V11C20 9.22303 18.6857 7.77734 17.0703 7.77734ZM4.6875 14.2227H3.51562V9.06641H4.6875V14.2227ZM8.20312 5.19922H10.625V6.48828H8.20312V5.19922ZM14.1406 14.715L13.1925 16.8008H7.85988L5.85938 14.6002V8.68884L6.68801 7.77734C6.92633 7.77734 11.93 7.77734 12.1401 7.77734L13.1404 8.87764C13.2503 8.99852 13.3993 9.06641 13.5547 9.06641H14.1406C14.1406 9.32993 14.1406 14.5053 14.1406 14.715ZM16.4844 14.2227H15.3125V10.3555H16.4844V14.2227ZM18.8281 13.5781C18.8281 14.4184 18.3383 15.1353 17.6562 15.4013C17.6562 14.9487 17.6562 9.34751 17.6562 9.17688C18.3383 9.4429 18.8281 10.1597 18.8281 11V13.5781Z" fill="white"/>
<path d="M11.2105 11.6447H9.81485L10.5627 9.99934C10.7075 9.68094 10.5901 9.29379 10.3007 9.13459C10.0113 8.97539 9.6593 9.10447 9.51457 9.42283L8.3427 12.001C8.14836 12.4285 8.43125 12.9338 8.86676 12.9338H10.2624L9.51453 14.5791C9.36981 14.8975 9.48715 15.2847 9.77657 15.4439C10.0661 15.6031 10.418 15.4739 10.5627 15.1556L11.7346 12.5775C11.9289 12.15 11.646 11.6447 11.2105 11.6447Z" fill="white"/>
</svg>
