<svg width="20" height="22" viewBox="0 0 20 22" fill="none" xmlns="http://www.w3.org/2000/svg">
<g clip-path="url(#clip0_84_1275)">
<path d="M19.4295 9.21959H17.3215L19.855 6.43272C20.0483 6.22 20.0483 5.87511 19.855 5.66247C19.6616 5.44975 19.348 5.44975 19.1547 5.66247L16.3137 8.78763L15.3511 6.04963C15.2774 5.83974 15.0939 5.70139 14.8893 5.70139H7.09861C6.92425 5.70139 6.76276 5.80227 6.67343 5.96691L4.90854 9.21952H1.1136C0.868396 9.21952 0.660097 9.41698 0.623917 9.68373L0.00542388 14.2383C-0.0158352 14.3951 0.0260227 14.5543 0.120038 14.6743C0.214119 14.7944 0.351048 14.8634 0.495174 14.8634H2.32464C2.73602 15.8431 3.64164 16.4976 4.64306 16.4976C5.64409 16.4976 6.54925 15.843 6.96036 14.8634H13.3277C13.739 15.8431 14.6443 16.4976 15.6456 16.4976C16.6466 16.4976 17.5517 15.843 17.9628 14.8634H19.4296C19.7031 14.8634 19.9248 14.6196 19.9248 14.3187V9.7642C19.9247 9.46346 19.703 9.21959 19.4295 9.21959ZM18.9344 13.7741H17.6203C17.3996 13.7741 17.2056 13.9347 17.1445 14.1679C16.9531 14.8982 16.3367 15.4083 15.6455 15.4083C14.954 15.4083 14.3374 14.8982 14.1458 14.1678C14.0847 13.9346 13.8906 13.7741 13.67 13.7741H6.61791C6.39726 13.7741 6.20323 13.9347 6.14209 14.1679C5.95069 14.8982 5.33425 15.4083 4.64306 15.4083C3.95135 15.4083 3.33444 14.8982 3.14272 14.1678C3.08158 13.9346 2.88754 13.7741 2.66696 13.7741H1.06983L1.5403 10.309H5.18959C5.36396 10.309 5.52544 10.2081 5.61477 10.0434L7.37967 6.79083H14.5499L15.6642 9.96072C15.738 10.1706 15.9215 10.309 16.126 10.309H18.9343V13.7741H18.9344Z" fill="white"/>
</g>
<defs>
<clipPath id="clip0_84_1275">
<rect width="20" height="22" fill="white"/>
</clipPath>
</defs>
</svg>
