<svg viewBox="0 0 19 15" fill="none" xmlns="http://www.w3.org/2000/svg">
<path fill-rule="evenodd" clip-rule="evenodd" d="M6.00005 12.0001V8.00012C5.99875 7.62905 6.02533 7.40711 6.10004 7.00012C6.19142 6.59307 6.26132 6.37425 6.42 6.00012C6.60267 5.58625 6.73181 5.36835 7.00005 5.00012C7.32831 4.5647 7.5564 4.35168 8.00005 4.00012C8.35481 3.75022 8.56184 3.6163 9.00005 3.42012C9.37777 3.25115 9.60938 3.18783 10 3.10012C10.3735 3.03225 10.5874 3.00435 11 3.00012C11.3942 3.00769 11.6133 3.02869 12 3.10012C12.4098 3.19705 12.5987 3.24966 13 3.42012C13.4323 3.6046 13.6491 3.73412 14 4.00012C14.4529 4.35163 14.6625 4.57487 15 5.00012C15.2642 5.37108 15.3962 5.58764 15.58 6.00012C15.7316 6.37224 15.8181 6.6011 15.9 7.00012C15.9078 7.04504 15.9154 7.08794 15.9227 7.12925C15.9788 7.44603 16.0184 7.66976 16 8.00012V12H16V15H19V12.0001H19V8.00012C18.9975 7.65629 18.9785 7.43898 18.9481 7.09324C18.9455 7.06322 18.9428 7.03224 18.94 7.00012C18.8824 6.61343 18.85 6.40103 18.74 6.00012C18.6328 5.5899 18.558 5.37522 18.42 5.00012L17.94 4.00012C17.715 3.64302 17.571 3.41696 17.24 3.00012C16.9199 2.59251 16.7054 2.37558 16.3 2.00012C16.0665 1.80564 15.9306 1.70068 15.68 1.52012C15.3947 1.304 15.2402 1.2043 14.9 1.02012L14.8744 1.00608C14.5007 0.800873 14.2661 0.672073 13.8 0.50012C13.5099 0.392794 13.3382 0.33656 13 0.26012C12.6409 0.16176 12.4172 0.118194 12 0.0601204C11.6425 0.0152343 11.4203 -0.00161371 11 0.000120433C10.6248 0.000768574 10.4057 0.0161411 10 0.0601204C9.57974 0.120254 9.35814 0.162379 9 0.26012C8.67225 0.339651 8.50126 0.394716 8.2 0.50012C7.7959 0.657512 7.5641 0.778339 7.23968 0.947448C7.1951 0.970687 7.14877 0.994839 7.1 1.02012L6.34 1.50012L5.7 2.00012C5.30554 2.36693 5.09947 2.58567 4.76 3.00012C4.71669 3.05977 4.67603 3.11539 4.63741 3.16822C4.42353 3.46078 4.27225 3.66772 4.08 4.00012C4.05221 4.05049 4.02586 4.09788 4.00063 4.14324C3.84108 4.43017 3.72669 4.63587 3.58 5.00012C3.56341 5.04701 3.54764 5.09139 3.53259 5.13377C3.41323 5.46969 3.33891 5.67887 3.26 6.00012C3.14902 6.39351 3.10567 6.61242 3.06 7.00012C3.00962 7.39819 3.00207 7.62098 3 8.00012V12.0001H6.00005Z" fill="white"/>
</svg>