<svg width="100" height="100" viewBox="0 0 100 100" fill="none" xmlns="http://www.w3.org/2000/svg">
<g clip-path="url(#clip0_1717_52)">
<path d="M0 26.8235C0 31.0308 3.4925 34.5233 7.78153 34.5233C12.0706 34.5233 15.318 31.1125 15.5631 26.8235C15.8898 20.2265 7.78153 9.2793 7.78153 9.2793C7.78153 9.2793 0 19.5934 0 26.8235Z" fill="white"/>
<path d="M99.7507 79.5982C98.8725 78.72 95.625 80.3948 91.9692 83.4788L74.9151 66.4248L81.0219 60.318L77.6111 56.9072L60.312 74.2063L63.7228 77.6171L70.0747 71.2653L87.1287 88.3193C84.0242 91.9752 82.3699 95.1409 83.2481 96.1008C84.351 97.2037 88.9668 94.426 93.5622 89.8306C98.0963 85.3169 100.874 80.7011 99.7507 79.5982Z" fill="white"/>
<path d="M86.8556 72.9559L90.5527 69.2588L83.9817 62.6878L80.2846 66.3849L86.8556 72.9559Z" fill="white"/>
<path d="M66.3494 80.3099L72.9204 86.8809L76.6175 83.1838L70.0465 76.6128L66.3494 80.3099Z" fill="white"/>
<path d="M37.4802 23.8792L34.8374 21.2363L24.6272 31.4465L27.2701 34.0894L37.4802 23.8792Z" fill="white"/>
<path d="M24.7539 26.1083L29.5126 21.3495L27.3681 19.205L26.3265 20.2466L10.2324 4.19336C9.51759 3.47852 8.333 3.47852 7.61816 4.19336C6.90332 4.90819 6.90332 6.09278 7.61816 6.80762L23.651 22.8404L22.6093 23.8821L24.7539 26.1083Z" fill="white"/>
<path d="M43.9726 22.6973L26.3467 40.3231L57.6975 71.6535L75.3233 54.0276L43.9726 22.6973ZM30.0843 41.181L32.9436 38.3216C33.5768 37.6885 34.6184 37.6885 35.2515 38.3216C35.8847 38.9547 35.8847 39.9964 35.2515 40.6295L32.3922 43.4889L30.0843 41.181ZM34.1282 45.3066L39.3567 40.0781C39.9899 39.4449 41.0315 39.4449 41.6647 40.0781C42.2978 40.7112 42.2978 41.7528 41.6647 42.386L36.4361 47.6145L34.1282 45.3066ZM38.1722 49.3505L41.0315 46.4912C41.6646 45.858 42.7063 45.858 43.3394 46.4912C43.9726 47.1243 43.9726 48.1659 43.3394 48.7991L40.4801 51.6584L38.1722 49.3505ZM42.2161 53.3945L47.4446 48.1659C48.0778 47.5328 49.1194 47.5328 49.7525 48.1659C50.3857 48.7991 50.3857 49.8407 49.7525 50.4739L44.524 55.7024L42.2161 53.3945ZM46.26 57.4588L49.1194 54.5995C49.7525 53.9663 50.7942 53.9663 51.4273 54.5995C52.0604 55.2326 52.0604 56.2743 51.4273 56.9074L48.5679 59.7668L46.26 57.4588ZM50.304 61.5028L55.5325 56.2743C56.1657 55.6411 57.2073 55.6411 57.8404 56.2743C58.4736 56.9074 58.4736 57.949 57.8404 58.5822L52.6119 63.8107L50.304 61.5028ZM56.7375 67.8546L54.4296 65.5467L57.289 62.6874C57.9221 62.0542 58.9637 62.0542 59.5969 62.6874C60.23 63.3205 60.23 64.3621 59.5969 64.9953L56.7375 67.8546Z" fill="white"/>
</g>
<defs>
<clipPath id="clip0_1717_52">
<rect width="100" height="100" fill="white"/>
</clipPath>
</defs>
</svg>
